<svg data-logo="logo" xmlns="http://www.w3.org/2000/svg" viewBox="0 0 265.1999969482422 42" width="265.1999969482422" height="42">
        <g id="logogram" transform="translate(0, 0.5)&#10;    rotate(0 33.5 20.5)"><path d="M0.452637 20.81C0.452637 9.76427 9.40694 0.809967 20.4526 0.809967H46.7026C57.7484 0.809967 66.7026 9.76427 66.7026 20.81V40.81H20.4526C9.40694 40.81 0.452637 31.8557 0.452637 20.81Z" fill="#777777"/><path d="M46.7026 8.30997H20.4526C13.5491 8.30997 7.95264 13.9064 7.95264 20.81C7.95264 27.7135 13.5491 33.31 20.4526 33.31H46.7026C53.6062 33.31 59.2026 27.7135 59.2026 20.81C59.2026 13.9064 53.6062 8.30997 46.7026 8.30997Z" fill="#C4C4C4"/><path d="M20.4526 27.06C23.9044 27.06 26.7026 24.2617 26.7026 20.81C26.7026 17.3582 23.9044 14.56 20.4526 14.56C17.0009 14.56 14.2026 17.3582 14.2026 20.81C14.2026 24.2617 17.0009 27.06 20.4526 27.06Z" fill="black"/><path d="M17.9526 19.56C18.643 19.56 19.2026 19.0003 19.2026 18.31C19.2026 17.6196 18.643 17.06 17.9526 17.06C17.2623 17.06 16.7026 17.6196 16.7026 18.31C16.7026 19.0003 17.2623 19.56 17.9526 19.56Z" fill="white"/><path d="M47.9526 27.06C51.4044 27.06 54.2026 24.2617 54.2026 20.81C54.2026 17.3582 51.4044 14.56 47.9526 14.56C44.5009 14.56 41.7026 17.3582 41.7026 20.81C41.7026 24.2617 44.5009 27.06 47.9526 27.06Z" fill="black"/><path d="M45.4526 19.56C46.143 19.56 46.7026 19.0003 46.7026 18.31C46.7026 17.6196 46.143 17.06 45.4526 17.06C44.7623 17.06 44.2026 17.6196 44.2026 18.31C44.2026 19.0003 44.7623 19.56 45.4526 19.56Z" fill="white"/></g>
        <g id="logotype" transform="translate(73, 7.31201171875)"><path fill="#111111" d="M17.64 27.38L17.64 27.38Q14.58 27.38 12.31 26.44Q10.05 25.50 8.79 23.65Q7.52 21.80 7.45 19.10L7.45 19.10L12.53 19.10Q12.63 20.39 13.30 21.25Q13.96 22.11 15.07 22.54Q16.19 22.97 17.59 22.97L17.59 22.97Q18.99 22.97 20.02 22.57Q21.06 22.16 21.64 21.43Q22.22 20.69 22.22 19.72L22.22 19.72Q22.22 18.85 21.70 18.26Q21.18 17.67 20.20 17.24Q19.23 16.81 17.83 16.49L17.83 16.49L15.02 15.79Q11.79 15.00 9.96 13.32Q8.14 11.64 8.14 8.87L8.14 8.87Q8.14 6.56 9.38 4.83Q10.61 3.11 12.78 2.15Q14.94 1.19 17.71 1.19L17.71 1.19Q20.53 1.19 22.63 2.16Q24.73 3.13 25.91 4.84Q27.09 6.56 27.12 8.80L27.12 8.80L22.08 8.80Q21.94 7.26 20.77 6.42Q19.60 5.59 17.66 5.59L17.66 5.59Q16.34 5.59 15.40 5.96Q14.46 6.34 13.96 7.00Q13.47 7.67 13.47 8.53L13.47 8.53Q13.47 9.47 14.04 10.09Q14.61 10.71 15.54 11.10Q16.48 11.48 17.55 11.74L17.55 11.74L19.86 12.30Q21.47 12.66 22.85 13.28Q24.23 13.89 25.28 14.79Q26.32 15.69 26.89 16.92Q27.46 18.15 27.46 19.75L27.46 19.75Q27.46 22.06 26.30 23.78Q25.14 25.50 22.94 26.44Q20.73 27.38 17.64 27.38ZM37.37 27.38L37.37 27.38Q34.50 27.38 32.40 26.14Q30.30 24.90 29.16 22.68Q28.03 20.47 28.03 17.53L28.03 17.53Q28.03 14.56 29.16 12.35Q30.30 10.13 32.40 8.89Q34.50 7.65 37.37 7.65L37.37 7.65Q40.26 7.65 42.36 8.89Q44.45 10.13 45.59 12.35Q46.72 14.56 46.72 17.53L46.72 17.53Q46.72 20.47 45.59 22.68Q44.45 24.90 42.36 26.14Q40.26 27.38 37.37 27.38ZM37.37 23.34L37.37 23.34Q38.74 23.34 39.66 22.58Q40.59 21.82 41.05 20.50Q41.51 19.17 41.51 17.52L41.51 17.52Q41.51 15.82 41.05 14.51Q40.59 13.19 39.66 12.44Q38.74 11.69 37.37 11.69L37.37 11.69Q36.01 11.69 35.09 12.44Q34.18 13.19 33.72 14.51Q33.26 15.82 33.26 17.52L33.26 17.52Q33.26 19.17 33.72 20.50Q34.18 21.82 35.09 22.58Q36.01 23.34 37.37 23.34ZM56.56 27.38L56.56 27.38Q53.68 27.38 51.58 26.14Q49.49 24.90 48.35 22.68Q47.22 20.47 47.22 17.53L47.22 17.53Q47.22 14.56 48.35 12.35Q49.49 10.13 51.58 8.89Q53.68 7.65 56.56 7.65L56.56 7.65Q58.26 7.65 59.69 8.10Q61.13 8.54 62.24 9.36Q63.35 10.18 64.07 11.36Q64.78 12.54 65.06 14.01L65.06 14.01L60.29 14.90Q60.14 14.15 59.81 13.56Q59.49 12.97 59.03 12.55Q58.56 12.13 57.96 11.91Q57.35 11.69 56.62 11.69L56.62 11.69Q55.25 11.69 54.32 12.42Q53.39 13.16 52.92 14.47Q52.45 15.79 52.45 17.52L52.45 17.52Q52.45 19.22 52.92 20.53Q53.39 21.84 54.32 22.59Q55.25 23.34 56.62 23.34L56.62 23.34Q57.35 23.34 57.97 23.11Q58.58 22.88 59.06 22.45Q59.54 22.01 59.86 21.39Q60.19 20.78 60.32 20.01L60.32 20.01L65.09 20.88Q64.82 22.40 64.10 23.59Q63.38 24.78 62.27 25.63Q61.16 26.49 59.72 26.93Q58.27 27.38 56.56 27.38ZM71.47 27L66.34 27L66.34 7.89L71.47 7.89L71.47 27ZM68.90 5.40L68.90 5.40Q67.74 5.40 66.92 4.63Q66.10 3.86 66.10 2.77L66.10 2.77Q66.10 1.67 66.92 0.90Q67.74 0.13 68.90 0.13L68.90 0.13Q70.06 0.13 70.89 0.90Q71.72 1.66 71.72 2.77L71.72 2.77Q71.72 3.86 70.89 4.63Q70.06 5.40 68.90 5.40ZM78.88 27.38L78.88 27.38Q77.07 27.38 75.62 26.74Q74.18 26.09 73.35 24.82Q72.52 23.55 72.52 21.65L72.52 21.65Q72.52 20.06 73.11 18.98Q73.70 17.91 74.72 17.26Q75.74 16.61 77.03 16.27Q78.32 15.93 79.73 15.79L79.73 15.79Q81.39 15.62 82.41 15.47Q83.43 15.33 83.90 15.01Q84.37 14.70 84.37 14.08L84.37 14.08L84.37 13.99Q84.37 13.17 84.02 12.61Q83.68 12.05 83.02 11.75Q82.35 11.45 81.38 11.45L81.38 11.45Q80.38 11.45 79.65 11.75Q78.91 12.05 78.45 12.54Q77.99 13.04 77.77 13.65L77.77 13.65L73.07 12.87Q73.57 11.21 74.71 10.05Q75.86 8.88 77.56 8.27Q79.26 7.65 81.38 7.65L81.38 7.65Q82.93 7.65 84.38 8.02Q85.84 8.39 86.99 9.16Q88.14 9.93 88.82 11.16Q89.49 12.39 89.49 14.13L89.49 14.13L89.49 27L84.64 27L84.64 24.35L84.47 24.35Q84.01 25.24 83.24 25.91Q82.47 26.59 81.38 26.98Q80.30 27.38 78.88 27.38ZM80.33 23.77L80.33 23.77Q81.55 23.77 82.46 23.29Q83.37 22.81 83.89 21.99Q84.40 21.17 84.40 20.16L84.40 20.16L84.40 18.10Q84.18 18.27 83.72 18.40Q83.25 18.54 82.69 18.64Q82.13 18.75 81.58 18.83Q81.03 18.92 80.61 18.97L80.61 18.97Q79.67 19.10 78.95 19.41Q78.23 19.72 77.84 20.22Q77.44 20.73 77.44 21.51L77.44 21.51Q77.44 22.25 77.82 22.75Q78.20 23.26 78.84 23.51Q79.48 23.77 80.33 23.77ZM91.59 1.54L96.72 1.54L96.72 27L91.59 27L91.59 1.54ZM104.10 27L98.92 27L98.92 1.54L106.92 1.54L111.06 13.23Q111.31 14.05 111.65 15.34Q111.98 16.64 112.32 18.15Q112.66 19.65 112.96 21.07Q113.26 22.49 113.45 23.53L113.45 23.53L112.44 23.53Q112.63 22.51 112.93 21.10Q113.23 19.69 113.57 18.18Q113.91 16.68 114.24 15.36Q114.58 14.05 114.83 13.23L114.83 13.23L118.90 1.54L126.93 1.54L126.93 27L121.69 27L121.69 14.99Q121.69 14.17 121.72 12.92Q121.75 11.67 121.79 10.23Q121.82 8.78 121.86 7.32Q121.89 5.86 121.91 4.56L121.91 4.56L122.23 4.56Q121.91 5.98 121.52 7.49Q121.12 9.00 120.72 10.42Q120.32 11.84 119.96 13.03Q119.60 14.22 119.34 14.99L119.34 14.99L115.12 27L110.73 27L106.44 14.99Q106.19 14.22 105.83 13.05Q105.47 11.88 105.07 10.46Q104.66 9.04 104.25 7.53Q103.84 6.01 103.47 4.56L103.47 4.56L103.88 4.56Q103.90 5.79 103.93 7.24Q103.96 8.70 104.01 10.16Q104.05 11.62 104.07 12.88Q104.10 14.13 104.10 14.99L104.10 14.99L104.10 27ZM137.77 27.38L137.77 27.38Q134.84 27.38 132.72 26.18Q130.60 24.98 129.47 22.78Q128.33 20.57 128.33 17.55L128.33 17.55Q128.33 14.59 129.46 12.37Q130.59 10.15 132.66 8.90Q134.72 7.65 137.51 7.65L137.51 7.65Q139.39 7.65 141.01 8.25Q142.64 8.85 143.87 10.06Q145.10 11.26 145.79 13.07Q146.48 14.88 146.48 17.34L146.48 17.34L146.48 18.78L130.43 18.78L130.43 15.57L143.97 15.57L141.58 16.42Q141.58 14.93 141.12 13.83Q140.67 12.73 139.77 12.12Q138.88 11.52 137.54 11.52L137.54 11.52Q136.23 11.52 135.30 12.13Q134.36 12.75 133.89 13.80Q133.41 14.85 133.41 16.20L133.41 16.20L133.41 18.47Q133.41 20.13 133.96 21.26Q134.52 22.39 135.52 22.95Q136.52 23.51 137.85 23.51L137.85 23.51Q138.76 23.51 139.49 23.26Q140.23 23.00 140.75 22.50Q141.27 21.99 141.54 21.26L141.54 21.26L146.19 22.13Q145.73 23.70 144.58 24.89Q143.44 26.08 141.72 26.73Q140.00 27.38 137.77 27.38ZM154.70 27.32L154.70 27.32Q152.49 27.32 150.73 26.19Q148.96 25.05 147.93 22.86Q146.91 20.66 146.91 17.48L146.91 17.48Q146.91 14.22 147.97 12.03Q149.03 9.84 150.79 8.75Q152.55 7.65 154.67 7.65L154.67 7.65Q156.29 7.65 157.37 8.20Q158.44 8.75 159.11 9.55Q159.78 10.35 160.10 11.11L160.10 11.11L160.27 11.11L160.27 1.54L165.40 1.54L165.40 27L160.36 27L160.36 23.94L160.10 23.94Q159.76 24.71 159.08 25.49Q158.41 26.27 157.33 26.79Q156.25 27.32 154.70 27.32ZM156.27 23.21L156.27 23.21Q157.57 23.21 158.49 22.49Q159.42 21.77 159.89 20.48Q160.37 19.19 160.37 17.46L160.37 17.46Q160.37 15.72 159.90 14.45Q159.43 13.17 158.51 12.47Q157.59 11.76 156.27 11.76L156.27 11.76Q154.92 11.76 154.01 12.49Q153.09 13.23 152.63 14.51Q152.17 15.79 152.17 17.46L152.17 17.46Q152.17 19.14 152.64 20.44Q153.11 21.74 154.02 22.47Q154.94 23.21 156.27 23.21ZM172.62 27L167.50 27L167.50 7.89L172.62 7.89L172.62 27ZM170.06 5.40L170.06 5.40Q168.90 5.40 168.08 4.63Q167.26 3.86 167.26 2.77L167.26 2.77Q167.26 1.67 168.08 0.90Q168.90 0.13 170.06 0.13L170.06 0.13Q171.22 0.13 172.05 0.90Q172.88 1.66 172.88 2.77L172.88 2.77Q172.88 3.86 172.05 4.63Q171.22 5.40 170.06 5.40ZM180.04 27.38L180.04 27.38Q178.23 27.38 176.78 26.74Q175.34 26.09 174.51 24.82Q173.68 23.55 173.68 21.65L173.68 21.65Q173.68 20.06 174.27 18.98Q174.86 17.91 175.88 17.26Q176.90 16.61 178.19 16.27Q179.48 15.93 180.89 15.79L180.89 15.79Q182.55 15.62 183.57 15.47Q184.59 15.33 185.06 15.01Q185.53 14.70 185.53 14.08L185.53 14.08L185.53 13.99Q185.53 13.17 185.18 12.61Q184.84 12.05 184.18 11.75Q183.51 11.45 182.53 11.45L182.53 11.45Q181.54 11.45 180.81 11.75Q180.07 12.05 179.61 12.54Q179.15 13.04 178.93 13.65L178.93 13.65L174.23 12.87Q174.72 11.21 175.87 10.05Q177.01 8.88 178.72 8.27Q180.42 7.65 182.53 7.65L182.53 7.65Q184.09 7.65 185.54 8.02Q187.00 8.39 188.15 9.16Q189.30 9.93 189.98 11.16Q190.65 12.39 190.65 14.13L190.65 14.13L190.65 27L185.80 27L185.80 24.35L185.63 24.35Q185.17 25.24 184.40 25.91Q183.63 26.59 182.54 26.98Q181.46 27.38 180.04 27.38ZM181.49 23.77L181.49 23.77Q182.71 23.77 183.62 23.29Q184.53 22.81 185.05 21.99Q185.56 21.17 185.56 20.16L185.56 20.16L185.56 18.10Q185.34 18.27 184.88 18.40Q184.41 18.54 183.85 18.64Q183.29 18.75 182.74 18.83Q182.19 18.92 181.77 18.97L181.77 18.97Q180.83 19.10 180.11 19.41Q179.39 19.72 179.00 20.22Q178.60 20.73 178.60 21.51L178.60 21.51Q178.60 22.25 178.98 22.75Q179.36 23.26 180.00 23.51Q180.64 23.77 181.49 23.77Z"/></g>
        
      </svg>